HIERARCHY
ROOT base
{
	OFFSET 0.0 0.0 0.0
	CHANNELS 6 Xposition Yposition Zposition Zrotation Yrotation Xrotation
	JOINT root
	{
		OFFSET 0 0 0
		CHANNELS 6 Xposition Yposition Zposition Zrotation Yrotation Xrotation
		JOINT chest
		{
			OFFSET 0 4.72302 0
			CHANNELS 3 Zrotation Yrotation Xrotation
			JOINT neck
			{
				OFFSET 0 4.47788 0
				CHANNELS 3 Zrotation Yrotation Xrotation
				End Site
				{
					OFFSET 0.0 0.0 0.0
				}
			}
			JOINT right_shoulder
			{
				OFFSET -0.481 4.87 3.6622
				CHANNELS 3 Zrotation Yrotation Xrotation
				JOINT right_elbow
				{
					OFFSET 0 -5.49576 0
					CHANNELS 3 Zrotation Yrotation Xrotation
					JOINT right_wrist
					{
						OFFSET 0 -5.17894 0
						CHANNELS 3 Zrotation Yrotation Xrotation
						End Site
						{
							OFFSET 0.0 0.0 0.0
						}
					}
				}
			}
			JOINT left_shoulder
			{
				OFFSET -0.481 4.87 -3.6622
				CHANNELS 3 Zrotation Yrotation Xrotation
				JOINT left_elbow
				{
					OFFSET 0 -5.49576 0
					CHANNELS 3 Zrotation Yrotation Xrotation
					JOINT left_wrist
					{
						OFFSET 0 -5.17894 0
						CHANNELS 3 Zrotation Yrotation Xrotation
						End Site
						{
							OFFSET 0.0 0.0 0.0
						}
					}
				}
			}
		}
		JOINT right_hip
		{
			OFFSET 0 0 1.69774
			CHANNELS 3 Zrotation Yrotation Xrotation
			JOINT right_knee
			{
				OFFSET 0 -8.43092 0
				CHANNELS 3 Zrotation Yrotation Xrotation
				JOINT right_ankle
				{
					OFFSET 0 -8.1974 0
					CHANNELS 3 Zrotation Yrotation Xrotation
					End Site
					{
						OFFSET 0.0 0.0 0.0
					}
				}
			}
		}
		JOINT left_hip
		{
			OFFSET 0 0 -1.69774
			CHANNELS 3 Zrotation Yrotation Xrotation
			JOINT left_knee
			{
				OFFSET 0 -8.43092 0
				CHANNELS 3 Zrotation Yrotation Xrotation
				JOINT left_ankle
				{
					OFFSET 0 -8.1974 0
					CHANNELS 3 Zrotation Yrotation Xrotation
					End Site
					{
						OFFSET 0.0 0.0 0.0
					}
				}
			}
		}
	}
	JOINT red_arrow
	{
		OFFSET 0 0 0
		CHANNELS 3 Zrotation Yrotation Xrotation
		End Site
		{
			OFFSET 0.0 0.0 0.0
		}
	}
	JOINT blue_arrow
	{
		OFFSET 0 0 0
		CHANNELS 3 Zrotation Yrotation Xrotation
		End Site
		{
			OFFSET 0.0 0.0 0.0
		}
	}
}
MOTION
Frames: 15
Frame Time: 0.0333333333333333
-122.678779375553 0 6.2702601402998 0 -35.7789527646896 0 0 15.1165546178818 0 -78.1256304455999 20.1751594659118 -34.8544830421291 -6.07202908274539 -2.48613934176612 0.172458189601044 -7.80643101544251 -6.34540678616452 3.55219666226989 41.8536645302378 24.4732735904407 -25.1216802112025 30.5401731755257 0 0 0 0 0 29.1166423477098 -42.7737155070082 27.0407035140675 15.6289635097755 0 0 0 0 0 99.2558153621465 1.94796466575889 -14.8921737316597 -66.5859501051344 0 0 36.0914314737694 3.37353125178143 4.63988366557353 105.365209899218 2.37959456565274 -5.97666868714025 -59.7763881064151 0 0 20.9388328969293 -6.43143735414017 -2.70268619965619 0 0 0 0 0 0
-122.901810097694 0 6.48400811553001 0 -32.9370162974033 0 0 15.2840403676033 0 -72.0767706449037 22.953688339862 -32.2087548878667 -8.4297388745827 -2.11067266007207 0.173985501513888 -5.90809861522976 -5.39919866627748 2.80815356991332 41.2752650779807 22.2877736630562 -17.4103360523122 27.9185621569672 0 0 0 0 0 36.3614484478099 -40.139877778293 21.937781361146 13.1911938629171 0 0 0 0 0 94.1336426613853 -2.14894101000422 -15.7042298044372 -64.5370026371573 0 0 33.8511894320562 4.79238319816717 3.71843124334976 99.385183968601 3.55874841810972 -4.22262589412398 -57.6392492358748 0 0 17.4951308693841 -10.4381892736491 -2.52253658755859 0 0 0 0 0 0
-123.03034337759 0 6.5582300260663 0 -30.4777826051086 0 0 15.4039730429649 0 -64.4403683701038 24.619683608696 -28.2280690433043 -11.3630238011344 -1.94735291352894 0.625374721763653 -7.54828885401328 -4.98758360337517 2.72094391903815 40.1356608984591 20.6085193756179 -12.6376713002008 27.3001209710211 0 0 0 0 0 38.0989668728145 -37.2987911297674 19.0780263549369 14.2556387177022 0 0 0 0 0 87.517463574572 -4.96252308268914 -15.3638039600831 -62.5546017022636 0 0 32.2692264152447 6.22090325305417 3.34080481627584 91.2736725310352 4.61883475999563 -2.25577224297309 -54.2362509158885 0 0 18.5489298899334 -12.400868910653 -2.73608251965947 0 0 0 0 0 0
-123.007089483738 0 6.56873259544373 0 -28.2868268171846 0 0 15.7146821737289 0 -57.1886759843965 25.7143037228561 -24.003358328613 -12.2886853823841 -2.0573161780345 0.957858901185586 -10.4236048542649 -5.25046314709491 3.1290596935518 36.2204614992548 18.4001354828179 -9.82039285520378 28.7939635972256 0 0 0 0 0 36.6898451459207 -33.7522006191113 15.9013615768271 16.3822889789983 0 0 0 0 0 79.3047764291123 -7.05759180714945 -14.9234487596805 -57.9671939386837 0 0 30.0306442850086 7.29170968181693 3.23238538270015 82.5549413775152 5.03822929466025 -1.35942872108695 -49.4915029145882 0 0 16.8712129231936 -13.535969804054 -2.64950300845418 0 0 0 0 0 0
-122.881208837032 0 6.56750560030341 0 -26.3232148874852 0 0 16.1760414361954 0 -49.9534535065436 26.1187118192716 -19.6819213727111 -13.4559879455772 -2.07036183827281 1.2506015924408 -13.446552342505 -6.55924695080035 3.9871117293343 31.4645814415198 16.2277139122778 -8.22329983123178 31.1652652581761 0 0 0 0 0 34.0011225053527 -31.1481163630924 14.0006076991539 18.1678899657891 0 0 0 0 0 69.5521894134792 -8.93994319410244 -14.0019608773757 -50.702976982768 0 0 26.6792486880827 7.36952496247633 3.09558330492389 72.2421409974778 5.35007965863269 -0.830902291118198 -42.1298396497838 0 0 13.8481400243072 -13.905929229783 -2.54868431153753 0 0 0 0 0 0
-122.677041304111 0 6.56205900534987 0 -24.5871241883556 0 0 16.5839632511139 0 -42.3802258833893 25.6152935421965 -15.4488598570891 -14.0566910681243 -1.97078693706807 1.58727119662884 -16.7771614889031 -7.48209329973244 4.95043993168618 27.2729971389311 14.5013478371179 -7.42148211978867 32.7418470884389 0 0 0 0 0 30.5436659277919 -28.8959926340592 12.9966783405038 19.5706947080939 0 0 0 0 0 58.8105450121856 -9.52062781731744 -12.0148377452384 -43.087667812946 0 0 23.4366690269709 6.87432149174747 3.10976445905284 61.5764915734609 5.19549140035038 -0.214642563970654 -34.9514371906001 0 0 11.1977845868093 -12.9990731161517 -2.56080039637297 0 0 0 0 0 0
-122.433700597286 0 6.55737574584782 0 -23.0637792415488 0 0 16.9551312923431 0 -35.7936402564815 24.1596661492358 -11.7718467710338 -13.019101392515 -1.67345824690935 1.63309829905416 -18.9021301420829 -8.32078558858351 5.63418138615124 23.1568537979338 12.5234163398768 -6.90198814113697 34.4948151389226 0 0 0 0 0 26.744687256301 -25.8995529619364 11.971428323365 19.9469220181457 0 0 0 0 0 48.4031833446799 -9.15781155526142 -9.82116189179596 -34.7498407421526 0 0 19.8949140329645 6.21372136832599 3.0701479611064 51.2887073495663 4.8152579438108 0.220719741834526 -27.1678919237842 0 0 8.26531200359248 -10.7610925506048 -2.61329752993113 0 0 0 0 0 0
-122.16183039546 0 6.56900709345937 0 -21.7371616607833 0 0 17.2338884830475 0 -29.727441169719 22.2318675947359 -8.65689682870471 -11.5517825696854 -1.31087606596847 1.54140583113085 -20.4227163854856 -8.97446967257101 6.22367739201499 19.6087121138102 10.7695076938661 -6.59718492009946 35.5016499093796 0 0 0 0 0 23.0921928518921 -23.0877695655669 11.2039071740293 19.3970593465611 0 0 0 0 0 38.328847708237 -8.09130824410765 -7.73209692838324 -26.6577911984529 0 0 16.5236191967185 5.29719569797776 2.97396280559444 41.2420947175662 4.24032625674856 0.565394426412192 -19.5484692725346 0 0 5.68764304435959 -7.48133713978729 -2.66846527212039 0 0 0 0 0 0
-121.881792503595 0 6.59249241352081 0 -20.5954415630315 0 0 17.4211346030235 0 -24.3406316515373 19.9225621722057 -6.07947556676314 -9.51327045216024 -0.951951642308532 1.34038169994772 -21.3251409494142 -9.42409666131106 6.54671254495629 16.7937641507636 9.27471974440879 -6.54373048754272 35.8804419554648 0 0 0 0 0 19.5439889641422 -20.0443883720038 10.3739929487365 18.2007482983388 0 0 0 0 0 28.9860236002845 -6.47222669326564 -6.05065716855737 -19.0377726131982 0 0 13.4151353486019 4.53803314394574 2.87635769406327 31.8261530037331 3.39309198090795 0.939487009516596 -12.3028355538032 0 0 3.24000295189024 -4.23431202234446 -2.86400330013772 0 0 0 0 0 0
-121.619068646431 0 6.64229168966413 0 -19.6134645957349 0 0 17.5261709928513 0 -19.7979661380021 17.6249533059811 -4.15870984872454 -7.12782510287266 -0.611520980498212 1.08434487987864 -21.6952892498684 -9.681464548995 6.72974217951398 13.9816054816799 7.53338150180579 -6.27812796965728 35.900116315369 0 0 0 0 0 16.2017831434777 -16.8374124561942 9.33877964630503 16.8336534925622 0 0 0 0 0 20.7510948644251 -4.58765820496013 -4.81390446103446 -12.2560957155391 0 0 10.6955893588285 3.88506053741813 2.72046390796962 23.2876453230748 2.57260635018891 1.39438074494016 -5.44225759151255 0 0 0.8227214210631 -1.51301773705094 -3.13656435069229 0 0 0 0 0 0
-121.380796521902 0 6.72348724156618 0 -18.7460171746956 0 0 17.56776252985 0 -15.7918152813111 15.8914180536574 -2.8367649877383 -4.84300439362093 -0.537451501965177 0.912406668081166 -21.9882927807834 -9.9260786216365 6.82133596573052 11.0800369729062 5.76329698768532 -5.65456483846375 35.7975439495083 0 0 0 0 0 13.2937747868508 -13.9501955954687 8.19676415893284 15.5916706769073 0 0 0 0 0 13.3798145100237 -2.90441423987201 -3.87314019880952 -6.45880062210107 0 0 8.46222431245487 2.98812436520033 2.44056014021098 15.8460958090517 1.43011792710312 1.94682892635189 0.0250575011279105 0 0 -1.13702396133964 0.777637018805466 -3.46987185979557 0 0 0 0 0 0
-121.184226378798 0 6.81715576425195 0 -17.9189240349802 0 0 17.5673260569572 0 -12.3017104159451 15.3711969458474 -2.01586587368069 -2.50648646042813 -1.67243750275637 1.05305477654127 -22.0356299108411 -10.0770571799532 6.60630300073687 8.37233326558952 4.27607334040641 -4.81032114150886 35.2851294975956 0 0 0 0 0 10.6972976601421 -11.2598305522388 6.89627197587508 14.1916287461218 0 0 0 0 0 6.94152188192157 -2.64715770276511 -3.15533832110266 -1.69092239861997 0 0 6.75088722983319 2.36455725509493 2.12275516385734 11.5457620830655 -0.973507941604478 2.47356972208166 0.00452602752155159 0 0 -0.13856270422799 3.17251432054312 -3.74489942093303 0 0 0 0 0 0
-121.022314545512 0 6.89044080674648 0 -17.1683184948581 0 0 17.5517112612724 0 -9.1547066944999 14.0871236894256 -1.06623995915067 -0.134055997619619 -2.13587298029561 0.758007708866418 -22.0272165840689 -10.0024973355143 6.29590115586074 6.04198378627929 3.09310109590252 -3.84515356258667 34.5968991462576 0 0 0 0 0 8.32040787651418 -8.89027331346407 5.67305999173478 13.1057943001771 0 0 0 0 0 2.5532795380498 -1.75351410233177 -2.85247647220736 6.0600081137657E-05 0 0 6.42745828108053 2.02437975804612 1.86542155692085 7.79734936450588 -2.4879517956906 2.79214043254709 0.000602629228815161 0 0 0.761552426120907 5.37627321423998 -3.92305225983957 0 0 0 0 0 0
-120.909269070625 0 6.9688020914793 0 -16.4696284867814 0 0 17.5423427343369 0 -6.49081437082159 13.1930017053012 -0.259285636858297 2.11241908133687 -2.21601058442411 0.461995294108271 -21.8255261170243 -9.95499036971049 6.00994499459664 3.89842659935419 2.13759725596905 -2.73129271004268 34.1169110174296 0 0 0 0 0 6.34084958781662 -6.82968446825499 4.46298564745305 12.2330609025632 0 0 0 0 0 -0.44355230432084 -0.559636225705431 -2.68625849534222 2.19169362629271E-05 0 0 6.8057472853716 1.07719457241613 1.52961870356805 4.72783568973293 -3.18490664235915 2.98609751219073 0.0164983319453257 0 0 1.18730847277255 6.32457287053133 -4.13911637602846 0 0 0 0 0 0
-120.878640733659 0 7.05456310212612 0 -15.7904336785032 0 0 17.5369879961014 0 -4.43755084897204 12.8673058734365 0.177559829333114 3.59294902314891 -2.20869003160263 0.355729096073785 -21.3629964335488 -10.0729173255129 5.86400656532328 2.33685594989427 1.50090950760566 -1.78809294365735 34.2258388743129 0 0 0 0 0 4.92686972465293 -5.50647065265823 3.59527784648609 11.9743367518977 0 0 0 0 0 -2.62900127724148 0.00145605584046045 -2.29853850475045 0.00011843604143496 0 0 6.96062280345757 0.202708305950826 1.13894947830822 2.62394734977707 -3.74866754347794 3.34418787224783 0.00281247379804489 0 0 1.27281401948605 6.54244548333002 -4.42164881667968 0 0 0 0 0 0
